<?xml version="1.0" encoding="UTF-8"?>
<svg id="Layer_2" xmlns="http://www.w3.org/2000/svg" viewBox="0 0 16 16">
  <defs>
    <style>
      .cls-1 {
        fill: #fff;
      }

      .cls-2 {
        fill: #0a0a0a;
      }
    </style>
  </defs>
  <g id="Layer_1-2" data-name="Layer_1">
    <g>
      <rect class="cls-2" width="16" height="16" rx="1.25" ry="1.25"/>
      <g>
        <polygon class="cls-1" points="13.12 3.63 10.98 3.63 6.9 7.42 6.01 5.73 4.38 5.73 5.81 8.43 1.56 12.37 3.71 12.37 6.52 9.76 7.06 10.79 8.68 10.79 7.6 8.75 13.12 3.63"/>
        <path class="cls-1" d="M14.35,7.08c-.1-.14-.23-.21-.4-.21h-3.71l-1.43,3.92h1.47l.47-1.31c.04-.1.13-.16.23-.16h.36c.09,0,.18.05.22.13l.68,1.34h1.47l-.75-1.47h.11c.21,0,.39-.06.56-.17.17-.12.29-.27.36-.47l.42-1.15c.06-.16.04-.31-.06-.45ZM12.66,8.47h-1.58l.23-.62h1.58l-.23.62Z"/>
      </g>
    </g>
  </g>
</svg>