<?xml version="1.0" encoding="UTF-8"?>
<svg id="Layer_1" xmlns="http://www.w3.org/2000/svg" xmlns:xlink="http://www.w3.org/1999/xlink" viewBox="0 0 687.15 252.94">
  <defs>
    <style>
      .cls-1 {
        fill: url(#linear-gradient-2);
      }

      .cls-2 {
        stroke-width: 1.05px;
      }

      .cls-2, .cls-3 {
        fill: none;
        stroke: #0a0a0a;
        stroke-miterlimit: 10;
      }

      .cls-4 {
        fill: url(#linear-gradient-4);
      }

      .cls-5 {
        fill: url(#linear-gradient-3);
      }

      .cls-3 {
        stroke-width: 2.1px;
      }

      .cls-6 {
        fill: #0a0a0a;
      }

      .cls-7 {
        fill: url(#linear-gradient);
      }
    </style>
    <linearGradient id="linear-gradient" x1="438.78" y1="73.48" x2="472.23" y2="129.28" gradientUnits="userSpaceOnUse">
      <stop offset="0" stop-color="#44ec21"/>
      <stop offset=".39" stop-color="#43ea20"/>
      <stop offset=".53" stop-color="#40e31f"/>
      <stop offset=".64" stop-color="#3cd71d"/>
      <stop offset=".72" stop-color="#37c61b"/>
      <stop offset=".79" stop-color="#2fb017"/>
      <stop offset=".85" stop-color="#259513"/>
      <stop offset=".9" stop-color="#1a740e"/>
      <stop offset=".95" stop-color="#0e5008"/>
      <stop offset="1" stop-color="#002802"/>
    </linearGradient>
    <linearGradient id="linear-gradient-2" x1="484.24" y1="156.06" x2="512.03" y2="199.34" gradientUnits="userSpaceOnUse">
      <stop offset="0" stop-color="#002802"/>
      <stop offset=".05" stop-color="#0e5008"/>
      <stop offset=".1" stop-color="#1a740e"/>
      <stop offset=".15" stop-color="#259513"/>
      <stop offset=".21" stop-color="#2fb017"/>
      <stop offset=".28" stop-color="#37c61b"/>
      <stop offset=".36" stop-color="#3cd71d"/>
      <stop offset=".47" stop-color="#40e31f"/>
      <stop offset=".61" stop-color="#43ea20"/>
      <stop offset="1" stop-color="#44ec21"/>
    </linearGradient>
    <linearGradient id="linear-gradient-3" x1="349.4" y1="126.47" x2="637.74" y2="126.47" gradientUnits="userSpaceOnUse">
      <stop offset="0" stop-color="#41f21c"/>
      <stop offset="1" stop-color="#44ec21"/>
    </linearGradient>
    <linearGradient id="linear-gradient-4" x1="533.44" y1="147.73" x2="673.98" y2="147.73" xlink:href="#linear-gradient-3"/>
  </defs>
  <g>
    <polygon class="cls-7" points="420.33 69.72 458.39 69.72 487.84 125.47 462.31 149.19 420.33 69.72"/>
    <path class="cls-6" d="M457.44,71.3l28.44,53.84-23.14,21.5-39.8-75.34h34.5M459.34,68.15h-41.62l44.16,83.59,27.91-25.94-30.45-57.65h0Z"/>
  </g>
  <g>
    <polygon class="cls-1" points="487.28 196.45 463.83 152.07 489.36 128.35 525.34 196.45 487.28 196.45"/>
    <path class="cls-6" d="M488.93,130.9l33.8,63.98h-34.5l-22.44-42.48,23.14-21.5M489.79,125.8l-27.91,25.94,24.45,46.29h41.62l-38.16-72.23h0Z"/>
  </g>
  <g>
    <polygon class="cls-5" points="349.4 237.05 587.39 15.89 637.74 15.89 399.75 237.05 349.4 237.05"/>
    <path class="cls-6" d="M633.74,17.46l-234.6,218.02h-45.73L588.01,17.46h45.73M641.74,14.32h-54.97l-241.38,224.31h54.97L641.74,14.32h0Z"/>
  </g>
  <g>
    <path class="cls-6" d="M11.6,195.87l35.78-98.44h36.89l14.47,28.15,34.83-28.15h36.89l-35.78,98.44h-36.89c5.09-14.21,11.98-33.24,20.67-57.09-.53.64-1.11,1.25-1.75,1.83-.64.58-1.33,1.19-2.07,1.83-.74.64-1.33,1.11-1.75,1.43l-29.58,24.17-10.97-22.9c-.11-.32-.43-1.06-.95-2.23-.53-1.17-.95-2.25-1.27-3.26-.32-1.01-.48-2.04-.48-3.1l-21.15,59.32H11.6Z"/>
    <path class="cls-6" d="M261.67,129.73l-20.2,55.19c-1.14,3.32-3.39,5.97-6.76,7.96-3.37,1.99-7.23,2.99-11.59,2.99h-76.52l20.05-55.19c1.23-3.41,3.51-6.09,6.83-8.04,3.32-1.94,7.2-2.92,11.66-2.92h76.52ZM184.01,179.23h28.16l12.09-33h-28.45l-11.81,33Z"/>
    <path class="cls-6" d="M425,97.43h-229.74c-7.73,0-14.64,4.84-17.28,12.11l-3.83,10.54h102.85l-27.55,75.79h36.89l27.55-75.79h90.24c7.58,0,14.35-4.74,16.94-11.86l3.93-10.79Z"/>
    <path class="cls-6" d="M413.29,129.88l-20.2,55.19c-1.14,3.32-3.39,5.97-6.76,7.96-3.37,1.99-7.23,2.99-11.59,2.99h-76.52l20.05-55.19c1.23-3.41,3.51-6.09,6.83-8.04,3.32-1.94,7.2-2.92,11.66-2.92h76.52ZM335.63,179.38h28.16l12.09-33h-28.45l-11.81,33Z"/>
  </g>
  <g>
    <path class="cls-4" d="M620.08,196.46l-16.99-33.4c-1.35-2.65-4.04-4.3-7.01-4.3h-9.11c-3.3,0-6.27,2.08-7.4,5.19l-11.77,32.52h-34.35l35.42-97.45h94.13c3.82,0,6.75,1.53,8.95,4.69,2.2,3.16,2.62,6.46,1.28,10.09l-10.73,29.42c-1.72,4.76-4.62,8.58-8.6,11.35-3.99,2.78-8.53,4.19-13.48,4.19h-5.33l19.18,37.7h-34.17ZM587.28,140.12h43.82l7.01-19.07h-43.82l-7.01,19.07Z"/>
    <path class="cls-6" d="M662.99,100.58c3.31,0,5.75,1.28,7.66,4.01,1.91,2.74,2.26,5.49,1.09,8.66l-10.73,29.42c-1.63,4.51-4.26,7.97-8.02,10.6-3.77,2.63-7.89,3.9-12.58,3.9h-7.89l2.33,4.57,16.85,33.13h-30.64l-16.55-32.54c-1.62-3.18-4.84-5.16-8.41-5.16h-9.11c-3.96,0-7.53,2.5-8.88,6.23l-11.4,31.48h-31l34.28-94.3h93.03M585.03,141.69h47.17l.76-2.06,5.85-15.93,1.55-4.23h-47.17l-.76,2.06-5.85,15.93-1.55,4.23M662.99,97.43h-95.23l-36.57,100.6h37.7l12.15-33.55c.9-2.49,3.27-4.15,5.92-4.15h9.11c2.37,0,4.54,1.33,5.61,3.44l17.43,34.26h37.7l-19.18-37.7h2.76c5.31,0,10.1-1.49,14.38-4.47,4.28-2.98,7.34-7.01,9.18-12.11l10.73-29.42c1.52-4.12,1.03-7.96-1.46-11.54-2.49-3.58-5.91-5.36-10.24-5.36h0ZM635.85,122.62l-5.85,15.93h-40.47l5.85-15.93h40.47Z"/>
  </g>
  <line class="cls-3" x1="629.24" y1="16.41" x2="392.36" y2="236.54"/>
  <line class="cls-2" x1="623.64" y1="16.41" x2="386.76" y2="236.54"/>
  <line class="cls-3" x1="574.18" y1="100.19" x2="539.52" y2="195.54"/>
  <line class="cls-2" x1="578.77" y1="100.19" x2="544.11" y2="195.54"/>
</svg>